HIERARCHY
ROOT Hips
{
  OFFSET 53.7814 91.6345 8.66052
  CHANNELS 6 Xposition Yposition Zposition Zrotation Xrotation Yrotation
  JOINT spine
  {
    OFFSET 0 6.84637 0.3937
    CHANNELS 3 Zrotation Xrotation Yrotation
    JOINT spine1
    {
      OFFSET 0 9.49621 0
      CHANNELS 3 Zrotation Xrotation Yrotation
      JOINT spine2
      {
        OFFSET 0 9.09909 0
        CHANNELS 3 Zrotation Xrotation Yrotation
        JOINT Neck
        {
          OFFSET 0 23.3612 1.11378
          CHANNELS 3 Zrotation Xrotation Yrotation
          JOINT Head
          {
            OFFSET 0 7.05802 0
            CHANNELS 3 Zrotation Xrotation Yrotation
            End Site
            {
              OFFSET 0 17.0844 -5.63419
            }
          }
        }
        JOINT RightShoulder
        {
          OFFSET -3.83136 9.82631 -0.533491
          CHANNELS 3 Zrotation Xrotation Yrotation
          JOINT RightArm
          {
            OFFSET 0 12.8881 0
            CHANNELS 3 Zrotation Xrotation Yrotation
            JOINT RightArmRoll
            {
              OFFSET 0 6.50617 0
              CHANNELS 3 Zrotation Xrotation Yrotation
              JOINT RightForeArm
              {
                OFFSET 0 18.9501 0
                CHANNELS 3 Zrotation Xrotation Yrotation
                JOINT RightForeArmRoll
                {
                  OFFSET 0 7.30092 0
                  CHANNELS 3 Zrotation Xrotation Yrotation
                  JOINT RightHand
                  {
                    OFFSET 0 14.6514 0
                    CHANNELS 3 Zrotation Xrotation Yrotation
                    End Site
                    {
                      OFFSET 0 0 0
                    }
                  }
                }
              }
            }
          }
        }
        JOINT LeftShoulder
        {
          OFFSET 3.83136 9.82631 -0.533491
          CHANNELS 3 Zrotation Xrotation Yrotation
          JOINT LeftArm
          {
            OFFSET 0 12.8881 0
            CHANNELS 3 Zrotation Xrotation Yrotation
            JOINT LeftArmRoll
            {
              OFFSET 0 6.50616 0
              CHANNELS 3 Zrotation Xrotation Yrotation
              JOINT LeftForeArm
              {
                OFFSET 0 18.9501 0
                CHANNELS 3 Zrotation Xrotation Yrotation
                JOINT LeftForeArmRoll
                {
                  OFFSET 0 7.30092 0
                  CHANNELS 3 Zrotation Xrotation Yrotation
                  JOINT LeftHand
                  {
                    OFFSET 0 14.6514 0
                    CHANNELS 3 Zrotation Xrotation Yrotation
                    End Site
                    {
                      OFFSET 0 0 0
                    }
                  }
                }
              }
            }
          }
        }
      }
    }
  }
  JOINT RightUpLeg
  {
    OFFSET -6.06837 -1.11278 -0.933477
    CHANNELS 3 Zrotation Xrotation Yrotation
    JOINT RightUpLegRoll
    {
      OFFSET 0 17.1796 0
      CHANNELS 3 Zrotation Xrotation Yrotation
      JOINT RightLeg
      {
        OFFSET 0 -21.2743 0
        CHANNELS 3 Zrotation Xrotation Yrotation
        JOINT RightLegRoll
        {
          OFFSET 0 21.3439 0
          CHANNELS 3 Zrotation Xrotation Yrotation
          JOINT RightFoot
          {
            OFFSET 0 17.7652 0
            CHANNELS 3 Zrotation Xrotation Yrotation
            JOINT RightToeBase
            {
              OFFSET 0 14.8508 0
              CHANNELS 3 Zrotation Xrotation Yrotation
              End Site
              {
                OFFSET 0.0062947 7.19214 -0.829004
              }
            }
          }
        }
      }
    }
  }
  JOINT LeftUpLeg
  {
    OFFSET 6.06837 -1.11278 -0.933477
    CHANNELS 3 Zrotation Xrotation Yrotation
    JOINT LeftUpLegRoll
    {
      OFFSET 0 17.1797 0
      CHANNELS 3 Zrotation Xrotation Yrotation
      JOINT LeftLeg
      {
        OFFSET 0 21.2742 0
        CHANNELS 3 Zrotation Xrotation Yrotation
        JOINT LeftLegRoll
        {
          OFFSET 0 21.5412 0
          CHANNELS 3 Zrotation Xrotation Yrotation
          JOINT LeftFoot
          {
            OFFSET 0 17.5679 0
            CHANNELS 3 Zrotation Xrotation Yrotation
            JOINT LeftToeBase
            {
              OFFSET 0 14.8508 0
              CHANNELS 3 Zrotation Xrotation Yrotation
              End Site
              {
                OFFSET -0.0282102 7.19214 -0.829004
              }
            }
          }
        }
      }
    }
  }
}
MOTION
Frames: 7
Frame Time: 0.00208333
53.8383 91.6949 6.54649 0.125107 -4.64392 -0.392454 0.0158084 -1.77827 -0.0966887 0.0274182 0.446128 -0.210406 0.0299277 2.0912 -0.211114 -3.70347 29.2623 0.534853 1.85709 -8.41585 -0.770411 62.5697 3.39838 1.52024 114.426 34.0296 -38.3811 2.57123e-007 -3.43172e-008 -3.31945e-006 11.2843 73.1547 -11.0388 9.32803e-006 4.03022e-006 -2.99999 8.02885 -4.95141 0.697646 -66.1327 1.83377 -0.133046 -119.467 39.2523 37.5634 1.06335e-007 -9.35895e-007 1.89217e-006 -26.0284 65.4843 19.4213 3.40111e-006 -1.74629e-006 3.0045 -8.02886 -4.95148 -0.697695 175.539 -0.919741 1.15544 180 7.01531e-015 178.856 178.313 5.05636 179.924 -3.65571e-006 3.61064e-006 0.0351955 -18.4975 67.6605 19.2522 8.13649 25.2327 -3.48774 -175.22 -4.41581 -0.171228 4.54188e-006 -4.6773e-006 -1.19741 -1.52632 -4.64694 0.0707593 -1.37099e-006 -3.52311e-006 -0.0380402 18.5883 67.7925 -19.3574 -8.13649 25.2327 3.48774 
53.8349 91.6935 6.54831 0.130559 -4.64202 -0.399254 0.0148491 -1.77806 -0.0971006 0.0258145 0.44618 -0.211296 0.0283444 2.09125 -0.211944 -3.73212 29.2641 0.556713 1.86757 -8.3998 -0.759634 62.6058 3.40941 1.52084 114.279 33.9332 -38.2978 2.57123e-007 -3.43172e-008 -3.31945e-006 11.3311 73.074 -11.049 9.32803e-006 4.03022e-006 -2.99999 8.02885 -4.95141 0.697646 -66.1605 1.83396 -0.129429 -119.286 39.1342 37.4211 1.06335e-007 -9.35895e-007 1.89217e-006 -26.0442 65.431 19.4041 3.40111e-006 -1.74629e-006 3.0045 -8.02886 -4.95148 -0.697695 175.552 -0.911935 1.12677 180 7.01531e-015 178.855 178.352 5.06973 179.921 -3.65571e-006 3.61064e-006 0.0351954 -18.4933 67.6555 19.2471 8.13649 25.2327 -3.48774 -175.228 -4.41508 -0.166502 4.54188e-006 -4.6773e-006 -1.19742 -1.52619 -4.6478 0.070746 -1.37099e-006 -3.52311e-006 -0.0380123 18.5881 67.7923 -19.3573 -8.13649 25.2327 3.48774 
53.8408 91.6933 6.54936 0.135979 -4.6403 -0.406038 0.0138867 -1.77782 -0.0975036 0.0242251 0.446289 -0.212107 0.0267746 2.09136 -0.212693 -3.76037 29.2655 0.578497 1.8781 -8.38338 -0.748745 62.6422 3.42094 1.52168 114.13 33.8367 -38.2118 2.57123e-007 -3.43172e-008 -3.31945e-006 11.378 72.9936 -11.0593 9.32803e-006 4.03022e-006 -2.99999 8.02885 -4.95141 0.697646 -66.1878 1.834 -0.125807 -119.105 39.0164 37.2776 1.06335e-007 -9.35895e-007 1.89217e-006 -26.0598 65.3751 19.3857 3.40111e-006 -1.74629e-006 3.0045 -8.02886 -4.95148 -0.697695 175.565 -0.904509 1.09825 180 7.01531e-015 178.855 178.391 5.08288 179.918 -3.65571e-006 3.61064e-006 0.0351953 -18.4893 67.6505 19.2421 8.13649 25.2327 -3.48774 -175.235 -4.41458 -0.161798 4.54188e-006 -4.6773e-006 -1.19744 -1.52603 -4.64865 0.070736 -1.37099e-006 -3.52311e-006 -0.0379847 18.588 67.7921 -19.3572 -8.13649 25.2327 3.48774 
53.8436 91.6909 6.54999 0.141245 -4.63889 -0.412735 0.0129547 -1.77751 -0.0978913 0.0227126 0.446525 -0.21282 0.0252805 2.09159 -0.213346 -3.78804 29.2663 0.600019 1.88849 -8.3668 -0.737877 62.6781 3.43239 1.52257 113.982 33.7397 -38.1235 2.57123e-007 -3.43172e-008 -3.31945e-006 11.4253 72.9133 -11.0699 9.32803e-006 4.03022e-006 -2.99999 8.02885 -4.95141 0.697646 -66.2141 1.83374 -0.122159 -118.926 38.8991 37.1334 1.06335e-007 -9.35895e-007 1.89217e-006 -26.0751 65.3162 19.3659 3.40111e-006 -1.74629e-006 3.0045 -8.02886 -4.95148 -0.697695 175.578 -0.89771 1.07048 180 7.01531e-015 178.855 178.429 5.09553 179.915 -3.65571e-006 3.61064e-006 0.0351953 -18.4854 67.6457 19.2373 8.13649 25.2327 -3.48774 -175.243 -4.41443 -0.157224 4.54188e-006 -4.6773e-006 -1.19745 -1.52585 -4.64946 0.0707285 -1.37099e-006 -3.52311e-006 -0.0379574 18.5878 67.7919 -19.3571 -8.13649 25.2327 3.48774 
53.8361 91.6918 6.54958 0.14624 -4.63789 -0.419275 0.0120864 -1.77712 -0.0982574 0.02134 0.446955 -0.213415 0.0239242 2.09202 -0.213885 -3.81495 29.2666 0.621096 1.89852 -8.35029 -0.727161 62.7124 3.44321 1.52333 113.835 33.6421 -38.0335 2.57123e-007 -3.43172e-008 -3.31945e-006 11.4731 72.8325 -11.0808 9.32803e-006 4.03022e-006 -2.99999 8.02885 -4.95141 0.697646 -66.2389 1.83302 -0.118466 -118.749 38.7827 36.9887 1.06335e-007 -9.35895e-007 1.89217e-006 -26.0899 65.2541 19.3445 3.40111e-006 -1.74629e-006 3.0045 -8.02886 -4.95148 -0.697695 175.589 -0.891783 1.04403 180 7.01531e-015 178.855 178.466 5.10745 179.912 -3.65571e-006 3.61064e-006 0.0351952 -18.4817 67.6411 19.2327 8.13649 25.2327 -3.48774 -175.251 -4.41476 -0.152892 4.54188e-006 -4.6773e-006 -1.19746 -1.52567 -4.65021 0.0707226 -1.37099e-006 -3.52311e-006 -0.0379303 18.5876 67.7917 -19.357 -8.13649 25.2327 3.48774 
53.8403 91.694 6.55045 0.150844 -4.63743 -0.425588 0.0113152 -1.77661 -0.0985957 0.0201697 0.447648 -0.213874 0.022768 2.09272 -0.214294 -3.8409 29.2662 0.641542 1.90797 -8.33406 -0.716727 62.7444 3.45284 1.52379 113.691 33.5437 -37.9422 2.57123e-007 -3.43172e-008 -3.31945e-006 11.5216 72.7507 -11.0921 9.32803e-006 4.03022e-006 -2.99999 8.02885 -4.95141 0.697646 -66.2618 1.8317 -0.114708 -118.576 38.6672 36.844 1.06335e-007 -9.35895e-007 1.89217e-006 -26.104 65.1883 19.3213 3.40111e-006 -1.74629e-006 3.0045 -8.02886 -4.95148 -0.697695 175.6 -0.886975 1.01949 180 7.01531e-015 178.855 178.5 5.11834 179.909 -3.65571e-006 3.61064e-006 0.0351951 -18.4784 67.637 19.2285 8.13649 25.2327 -3.48774 -175.257 -4.41571 -0.148912 4.54188e-006 -4.6773e-006 -1.19748 -1.5255 -4.65088 0.0707177 -1.37099e-006 -3.52311e-006 -0.0379035 18.5875 67.7915 -19.3569 -8.13649 25.2327 3.48774 
53.8334 91.674 6.55246 0.154939 -4.63763 -0.431602 0.0106745 -1.77596 -0.0988998 0.0192645 0.448673 -0.214178 0.0218742 2.09374 -0.214555 -3.8657 29.2651 0.661173 1.91663 -8.31833 -0.706708 62.7732 3.46072 1.52375 113.552 33.4442 -37.8502 2.57123e-007 -3.43172e-008 -3.31945e-006 11.571 72.6674 -11.1039 9.32803e-006 4.03022e-006 -2.99999 8.02885 -4.95141 0.697646 -66.2824 1.82961 -0.110867 -118.408 38.5532 36.6995 1.06335e-007 -9.35895e-007 1.89217e-006 -26.1174 65.1184 19.2961 3.40111e-006 -1.74629e-006 3.0045 -8.02886 -4.95148 -0.697695 175.61 -0.883532 0.997441 180 7.01531e-015 178.855 178.53 5.12801 179.907 -3.65571e-006 3.61064e-006 0.035195 -18.4754 67.6334 19.2248 8.13649 25.2327 -3.48774 -175.264 -4.4174 -0.145395 4.54188e-006 -4.6773e-006 -1.19749 -1.52536 -4.65147 0.0707129 -1.37099e-006 -3.52311e-006 -0.037877 18.5873 67.7913 -19.3567 -8.13649 25.2327 3.48774 
